
<svg xmlns="http://www.w3.org/2000/svg" version="1.1" id="svg2" xml:space="preserve" width="800" height="800" viewBox="0 0 799.99998 799.99998"><defs id="defs6"><clipPath clipPathUnits="userSpaceOnUse" id="clipPath22"><path d="M 0,841.89 H 595.276 V 0 H 0 Z" id="path20"></path></clipPath><clipPath clipPathUnits="userSpaceOnUse" id="clipPath24"><path d="M 0,841.89 H 595.276 V 0 H 0 Z" id="path22"></path></clipPath><clipPath clipPathUnits="userSpaceOnUse" id="clipPath1142"><path d="m 198.425,457.508 c 0,-31.309 25.382,-56.692 56.694,-56.692 v 0 c 31.309,0 56.691,25.383 56.691,56.692 v 0 c 0,31.309 -25.382,56.692 -56.691,56.692 v 0 c -31.312,0 -56.694,-25.383 -56.694,-56.692" id="path1140"></path></clipPath><radialGradient fx="0" fy="0" cx="0" cy="0" r="1" gradientUnits="userSpaceOnUse" gradientTransform="matrix(87.283455,0,0,-87.283455,232.83759,478.42743)" spreadMethod="pad" id="radialGradient1154"><stop style="stop-opacity:1;stop-color:#36adcf" offset="0" id="stop1148"></stop><stop style="stop-opacity:1;stop-color:#1a899b" offset="0.505618" id="stop1150"></stop><stop style="stop-opacity:1;stop-color:#13646d" offset="1" id="stop1152"></stop></radialGradient><clipPath clipPathUnits="userSpaceOnUse" id="clipPath1164"><path d="M 0,841.89 H 595.276 V 0 H 0 Z" id="path1162"></path></clipPath><clipPath clipPathUnits="userSpaceOnUse" id="clipPath1460"><path d="m 223.735,457.127 c 0,-17.848 13.965,-32.317 31.189,-32.317 v 0 c 17.221,0 31.186,14.469 31.186,32.317 v 0 c 0,17.852 -13.965,32.322 -31.186,32.322 v 0 c -17.224,0 -31.189,-14.47 -31.189,-32.322" id="path1458"></path></clipPath><radialGradient fx="0" fy="0" cx="0" cy="0" r="1" gradientUnits="userSpaceOnUse" gradientTransform="matrix(44.909515,0,0,-44.909515,247.38762,466.95462)" spreadMethod="pad" id="radialGradient1472"><stop style="stop-opacity:1;stop-color:#36adcf" offset="0" id="stop1466"></stop><stop style="stop-opacity:1;stop-color:#2492a5" offset="0.505618" id="stop1468"></stop><stop style="stop-opacity:1;stop-color:#13646d" offset="1" id="stop1470"></stop></radialGradient><clipPath clipPathUnits="userSpaceOnUse" id="clipPath1482"><path d="m 223.735,457.127 c 0,-17.848 13.965,-32.317 31.189,-32.317 v 0 c 17.221,0 31.186,14.469 31.186,32.317 v 0 c 0,17.852 -13.965,32.322 -31.186,32.322 v 0 c -17.224,0 -31.189,-14.47 -31.189,-32.322" id="path1480"></path></clipPath><radialGradient fx="0" fy="0" cx="0" cy="0" r="1" gradientUnits="userSpaceOnUse" gradientTransform="matrix(42.655163,0,0,-42.655163,239.85269,470.01209)" spreadMethod="pad" id="radialGradient1494"><stop style="stop-opacity:1;stop-color:#36adcf" offset="0" id="stop1488"></stop><stop style="stop-opacity:1;stop-color:#2492a5" offset="0.505618" id="stop1490"></stop><stop style="stop-opacity:1;stop-color:#13646d" offset="1" id="stop1492"></stop></radialGradient><clipPath clipPathUnits="userSpaceOnUse" id="clipPath1504"><path d="m 254.632,480.266 c 5.992,-3.279 12.161,-10.925 14.675,-18.178 v 0 c 3.731,-10.768 2.794,-23.469 -2.579,-34.852 v 0 l 0.983,-0.461 c 5.493,11.636 6.445,24.637 2.621,35.669 v 0 c -2.633,7.602 -8.874,15.325 -15.177,18.776 v 0 z" id="path1502"></path></clipPath><radialGradient fx="0" fy="0" cx="0" cy="0" r="1" gradientUnits="userSpaceOnUse" gradientTransform="matrix(42.805374,0.5084687,0.5084687,-42.805374,239.5699,469.82642)" spreadMethod="pad" id="radialGradient1516"><stop style="stop-opacity:1;stop-color:#6ecbe5" offset="0" id="stop1510"></stop><stop style="stop-opacity:1;stop-color:#5db0bf" offset="0.505618" id="stop1512"></stop><stop style="stop-opacity:1;stop-color:#3d7f85" offset="1" id="stop1514"></stop></radialGradient><clipPath clipPathUnits="userSpaceOnUse" id="clipPath1526"><path d="m 256.743,482.042 c 9.778,-1.572 18.606,-9.615 21.944,-16.387 v 0 c 4.028,-8.167 4.077,-17.824 0.147,-28.699 v 0 l 1.021,-0.37 c 4.037,11.166 3.97,21.106 -0.194,29.551 v 0 c -3.459,7.015 -12.606,15.35 -22.745,16.977 v 0 z" id="path1524"></path></clipPath><radialGradient fx="0" fy="0" cx="0" cy="0" r="1" gradientUnits="userSpaceOnUse" gradientTransform="matrix(42.65382,0.5066684,0.5066684,-42.65382,239.71829,469.82855)" spreadMethod="pad" id="radialGradient1538"><stop style="stop-opacity:1;stop-color:#6ecbe5" offset="0" id="stop1532"></stop><stop style="stop-opacity:1;stop-color:#5db0bf" offset="0.505618" id="stop1534"></stop><stop style="stop-opacity:1;stop-color:#3d7f85" offset="1" id="stop1536"></stop></radialGradient><clipPath clipPathUnits="userSpaceOnUse" id="clipPath1548"><path d="m 273.293,485.295 c 1.574,-3.233 1.247,-7.358 -0.899,-11.318 v 0 c -3.338,-6.168 -10.028,-10.579 -17.456,-11.515 v 0 c -11.974,-1.508 -23.494,-0.917 -26.688,13.51 v 0 l -1.062,-0.233 c 3.391,-15.318 15.999,-15.851 27.885,-14.354 v 0 c 7.771,0.98 14.777,5.606 18.279,12.073 v 0 c 2.313,4.272 2.649,8.76 0.919,12.313 v 0 z" id="path1546"></path></clipPath><radialGradient fx="0" fy="0" cx="0" cy="0" r="1" gradientUnits="userSpaceOnUse" gradientTransform="matrix(42.698002,0.5071933,0.5071933,-42.698002,239.73293,469.80948)" spreadMethod="pad" id="radialGradient1560"><stop style="stop-opacity:1;stop-color:#6ecbe5" offset="0" id="stop1554"></stop><stop style="stop-opacity:1;stop-color:#5db0bf" offset="0.505618" id="stop1556"></stop><stop style="stop-opacity:1;stop-color:#3d7f85" offset="1" id="stop1558"></stop></radialGradient><clipPath clipPathUnits="userSpaceOnUse" id="clipPath1570"><path d="m 259.269,438.124 c -16.187,-1.942 -30.369,5.154 -35.498,12.817 v 0 l -0.901,-0.605 c 5.438,-8.128 19.734,-15.307 36.529,-13.289 v 0 c 15.355,1.843 27.471,16.345 28.042,28.081 v 0 l -1.088,0.052 c -0.549,-11.302 -12.25,-25.275 -27.084,-27.056" id="path1568"></path></clipPath><radialGradient fx="0" fy="0" cx="0" cy="0" r="1" gradientUnits="userSpaceOnUse" gradientTransform="matrix(42.794937,0.5083447,0.5083447,-42.794937,239.718,469.88248)" spreadMethod="pad" id="radialGradient1582"><stop style="stop-opacity:1;stop-color:#6ecbe5" offset="0" id="stop1576"></stop><stop style="stop-opacity:1;stop-color:#5db0bf" offset="0.505618" id="stop1578"></stop><stop style="stop-opacity:1;stop-color:#3d7f85" offset="1" id="stop1580"></stop></radialGradient><clipPath clipPathUnits="userSpaceOnUse" id="clipPath1592"><path d="m 265.828,490.778 c 0.486,-1.434 -0.114,-3.806 -1.568,-6.19 v 0 c -1.092,-1.787 -5.282,-7.71 -13.462,-8.924 v 0 c -6.715,-1 -15.18,0.438 -16.936,7.766 v 0 l -1.057,-0.253 c 1.804,-7.529 10.416,-9.739 18.154,-8.591 v 0 c 5.835,0.868 11.152,4.396 14.229,9.435 v 0 c 1.642,2.694 2.266,5.351 1.668,7.107 v 0 z" id="path1590"></path></clipPath><radialGradient fx="0" fy="0" cx="0" cy="0" r="1" gradientUnits="userSpaceOnUse" gradientTransform="matrix(42.914482,0.5097648,0.5097648,-42.914482,239.75966,469.68814)" spreadMethod="pad" id="radialGradient1604"><stop style="stop-opacity:1;stop-color:#6ecbe5" offset="0" id="stop1598"></stop><stop style="stop-opacity:1;stop-color:#5db0bf" offset="0.505618" id="stop1600"></stop><stop style="stop-opacity:1;stop-color:#3d7f85" offset="1" id="stop1602"></stop></radialGradient><clipPath clipPathUnits="userSpaceOnUse" id="clipPath1614"><path d="m 280.966,476.719 c 0.842,-5.29 -0.575,-10.781 -3.991,-15.46 v 0 c -4.338,-5.951 -11.369,-9.939 -19.8,-11.233 v 0 c -14.764,-2.264 -26.906,2.739 -33.306,13.724 v 0 l -0.936,-0.549 c 6.637,-11.39 19.179,-16.584 34.41,-14.246 v 0 c 8.715,1.338 15.999,5.478 20.511,11.662 v 0 c 3.588,4.916 5.072,10.694 4.185,16.272 v 0 z" id="path1612"></path></clipPath><radialGradient fx="0" fy="0" cx="0" cy="0" r="1" gradientUnits="userSpaceOnUse" gradientTransform="matrix(42.854118,0.5090477,0.5090477,-42.854118,239.77759,469.77582)" spreadMethod="pad" id="radialGradient1626"><stop style="stop-opacity:1;stop-color:#6ecbe5" offset="0" id="stop1620"></stop><stop style="stop-opacity:1;stop-color:#5db0bf" offset="0.505618" id="stop1622"></stop><stop style="stop-opacity:1;stop-color:#3d7f85" offset="1" id="stop1624"></stop></radialGradient><clipPath clipPathUnits="userSpaceOnUse" id="clipPath1636"><path d="m 237.541,429.567 0.986,0.448 c -6.33,14 -4.535,31.041 4.461,42.408 v 0 l -0.854,0.673 c -9.24,-11.675 -11.088,-29.166 -4.593,-43.529" id="path1634"></path></clipPath><radialGradient fx="0" fy="0" cx="0" cy="0" r="1" gradientUnits="userSpaceOnUse" gradientTransform="matrix(42.615261,2.1037214,2.0952041,-42.615261,239.0127,470.00586)" spreadMethod="pad" id="radialGradient1648"><stop style="stop-opacity:1;stop-color:#6ecbe5" offset="0" id="stop1642"></stop><stop style="stop-opacity:1;stop-color:#5db0bf" offset="0.505618" id="stop1644"></stop><stop style="stop-opacity:1;stop-color:#3d7f85" offset="1" id="stop1646"></stop></radialGradient><clipPath clipPathUnits="userSpaceOnUse" id="clipPath1658"><path d="m 225.639,445.593 1.079,0.097 c -1.116,12.369 3.764,24.842 12.689,31.311 v 0 l -0.645,0.873 c -9.22,-6.686 -14.274,-19.55 -13.123,-32.281" id="path1656"></path></clipPath><radialGradient fx="0" fy="0" cx="0" cy="0" r="1" gradientUnits="userSpaceOnUse" gradientTransform="matrix(42.941509,2.1198266,2.1112444,-42.941509,239.65335,470.2247)" spreadMethod="pad" id="radialGradient1670"><stop style="stop-opacity:1;stop-color:#6ecbe5" offset="0" id="stop1664"></stop><stop style="stop-opacity:1;stop-color:#5db0bf" offset="0.505618" id="stop1666"></stop><stop style="stop-opacity:1;stop-color:#3d7f85" offset="1" id="stop1668"></stop></radialGradient><clipPath clipPathUnits="userSpaceOnUse" id="clipPath1680"><path d="m 215.966,457.338 c 0,-21.676 17.574,-39.248 39.252,-39.248 v 0 c 21.68,0 39.255,17.572 39.255,39.248 v 0 c 0,21.68 -17.575,39.257 -39.255,39.257 v 0 c -21.678,0 -39.252,-17.577 -39.252,-39.257 m 8.243,0 c 0,17.129 13.884,31.009 31.009,31.009 v 0 c 17.127,0 31.01,-13.88 31.01,-31.009 v 0 c 0,-17.123 -13.883,-31.007 -31.01,-31.007 v 0 c -17.125,0 -31.009,13.884 -31.009,31.007" id="path1678"></path></clipPath><radialGradient fx="0" fy="0" cx="0" cy="0" r="1" gradientUnits="userSpaceOnUse" gradientTransform="matrix(65.953308,0,0,-66.078613,243.1369,479.15097)" spreadMethod="pad" id="radialGradient1690"><stop style="stop-opacity:1;stop-color:#ffffff" offset="0" id="stop1686"></stop><stop style="stop-opacity:1;stop-color:#dad8ca" offset="1" id="stop1688"></stop></radialGradient><clipPath clipPathUnits="userSpaceOnUse" id="clipPath1700"><path d="m 238.727,496.893 v -78.795 h 35.425 v 14.708 h -11.658 v 49.031 h 11.658 v 15.056 z" id="path1698"></path></clipPath><radialGradient fx="0" fy="0" cx="0" cy="0" r="1" gradientUnits="userSpaceOnUse" gradientTransform="matrix(66.221153,0,0,-66.221153,243.13399,479.3844)" spreadMethod="pad" id="radialGradient1710"><stop style="stop-opacity:1;stop-color:#ffffff" offset="0" id="stop1706"></stop><stop style="stop-opacity:1;stop-color:#dad8ca" offset="1" id="stop1708"></stop></radialGradient><clipPath clipPathUnits="userSpaceOnUse" id="clipPath1720"><path d="m 241.519,494.102 v -73.21 h 29.84 v 9.119 h -11.657 v 54.617 h 11.657 v 9.474 z" id="path1718"></path></clipPath><radialGradient fx="0" fy="0" cx="0" cy="0" r="1" gradientUnits="userSpaceOnUse" gradientTransform="matrix(56.653492,0,0,-56.653492,243.96515,475.08191)" spreadMethod="pad" id="radialGradient1732"><stop style="stop-opacity:1;stop-color:#36adcf" offset="0" id="stop1726"></stop><stop style="stop-opacity:1;stop-color:#1a899b" offset="0.505618" id="stop1728"></stop><stop style="stop-opacity:1;stop-color:#13646d" offset="1" id="stop1730"></stop></radialGradient><clipPath clipPathUnits="userSpaceOnUse" id="clipPath1742"><path d="m 384.803,457.508 c 0,-32.093 26.017,-58.111 58.11,-58.111 v 0 c 32.094,0 58.111,26.018 58.111,58.111 v 0 c 0,32.094 -26.017,58.11 -58.111,58.11 v 0 c -32.093,0 -58.11,-26.016 -58.11,-58.11" id="path1740"></path></clipPath><radialGradient fx="0" fy="0" cx="0" cy="0" r="1" gradientUnits="userSpaceOnUse" gradientTransform="matrix(58.110496,0,0,58.110496,442.91351,457.50751)" spreadMethod="pad" id="radialGradient1752"><stop style="stop-opacity:1;stop-color:#ffffff" offset="0" id="stop1748"></stop><stop style="stop-opacity:1;stop-color:#dad8ca" offset="1" id="stop1750"></stop></radialGradient><clipPath clipPathUnits="userSpaceOnUse" id="clipPath1762"><path d="m 386.221,457.508 c 0,-31.309 25.382,-56.692 56.693,-56.692 v 0 c 31.31,0 56.692,25.383 56.692,56.692 v 0 c 0,31.309 -25.382,56.692 -56.692,56.692 v 0 c -31.311,0 -56.693,-25.383 -56.693,-56.692" id="path1760"></path></clipPath><radialGradient fx="0" fy="0" cx="0" cy="0" r="1" gradientUnits="userSpaceOnUse" gradientTransform="matrix(87.283455,0,0,-87.283455,420.63318,478.42743)" spreadMethod="pad" id="radialGradient1774"><stop style="stop-opacity:1;stop-color:#36adcf" offset="0" id="stop1768"></stop><stop style="stop-opacity:1;stop-color:#1a899b" offset="0.505618" id="stop1770"></stop><stop style="stop-opacity:1;stop-color:#13646d" offset="1" id="stop1772"></stop></radialGradient><clipPath clipPathUnits="userSpaceOnUse" id="clipPath1784"><path d="M 0,841.89 H 595.276 V 0 H 0 Z" id="path1782"></path></clipPath><clipPath clipPathUnits="userSpaceOnUse" id="clipPath2080"><path d="m 411.53,457.127 c 0,-17.848 13.966,-32.317 31.19,-32.317 v 0 c 17.22,0 31.186,14.469 31.186,32.317 v 0 c 0,17.852 -13.966,32.322 -31.186,32.322 v 0 c -17.224,0 -31.19,-14.47 -31.19,-32.322" id="path2078"></path></clipPath><radialGradient fx="0" fy="0" cx="0" cy="0" r="1" gradientUnits="userSpaceOnUse" gradientTransform="matrix(44.909515,0,0,-44.909515,435.1832,466.95462)" spreadMethod="pad" id="radialGradient2092"><stop style="stop-opacity:1;stop-color:#36adcf" offset="0" id="stop2086"></stop><stop style="stop-opacity:1;stop-color:#2492a5" offset="0.505618" id="stop2088"></stop><stop style="stop-opacity:1;stop-color:#13646d" offset="1" id="stop2090"></stop></radialGradient><clipPath clipPathUnits="userSpaceOnUse" id="clipPath2102"><path d="m 411.53,457.127 c 0,-17.848 13.966,-32.317 31.19,-32.317 v 0 c 17.22,0 31.186,14.469 31.186,32.317 v 0 c 0,17.852 -13.966,32.322 -31.186,32.322 v 0 c -17.224,0 -31.19,-14.47 -31.19,-32.322" id="path2100"></path></clipPath><radialGradient fx="0" fy="0" cx="0" cy="0" r="1" gradientUnits="userSpaceOnUse" gradientTransform="matrix(42.655163,0,0,-42.655163,427.64828,470.01209)" spreadMethod="pad" id="radialGradient2114"><stop style="stop-opacity:1;stop-color:#36adcf" offset="0" id="stop2108"></stop><stop style="stop-opacity:1;stop-color:#2492a5" offset="0.505618" id="stop2110"></stop><stop style="stop-opacity:1;stop-color:#13646d" offset="1" id="stop2112"></stop></radialGradient><clipPath clipPathUnits="userSpaceOnUse" id="clipPath2124"><path d="m 442.428,480.266 c 5.992,-3.279 12.161,-10.925 14.675,-18.178 v 0 c 3.73,-10.768 2.793,-23.469 -2.579,-34.852 v 0 l 0.983,-0.461 c 5.493,11.636 6.444,24.637 2.621,35.669 v 0 c -2.633,7.602 -8.874,15.325 -15.177,18.776 v 0 z" id="path2122"></path></clipPath><radialGradient fx="0" fy="0" cx="0" cy="0" r="1" gradientUnits="userSpaceOnUse" gradientTransform="matrix(42.805374,0.5084687,0.5084687,-42.805374,427.36551,469.82642)" spreadMethod="pad" id="radialGradient2136"><stop style="stop-opacity:1;stop-color:#6ecbe5" offset="0" id="stop2130"></stop><stop style="stop-opacity:1;stop-color:#5db0bf" offset="0.505618" id="stop2132"></stop><stop style="stop-opacity:1;stop-color:#3d7f85" offset="1" id="stop2134"></stop></radialGradient><clipPath clipPathUnits="userSpaceOnUse" id="clipPath2146"><path d="m 444.539,482.042 c 9.776,-1.572 18.606,-9.615 21.944,-16.387 v 0 c 4.028,-8.167 4.077,-17.824 0.147,-28.699 v 0 l 1.021,-0.37 c 4.036,11.166 3.97,21.106 -0.195,29.551 v 0 c -3.459,7.015 -12.606,15.35 -22.745,16.977 v 0 z" id="path2144"></path></clipPath><radialGradient fx="0" fy="0" cx="0" cy="0" r="1" gradientUnits="userSpaceOnUse" gradientTransform="matrix(42.65382,0.5066684,0.5066684,-42.65382,427.51389,469.82855)" spreadMethod="pad" id="radialGradient2158"><stop style="stop-opacity:1;stop-color:#6ecbe5" offset="0" id="stop2152"></stop><stop style="stop-opacity:1;stop-color:#5db0bf" offset="0.505618" id="stop2154"></stop><stop style="stop-opacity:1;stop-color:#3d7f85" offset="1" id="stop2156"></stop></radialGradient><clipPath clipPathUnits="userSpaceOnUse" id="clipPath2168"><path d="m 461.089,485.295 c 1.573,-3.233 1.247,-7.358 -0.899,-11.318 v 0 c -3.338,-6.168 -10.029,-10.579 -17.456,-11.515 v 0 c -11.974,-1.508 -23.495,-0.917 -26.689,13.51 v 0 l -1.061,-0.233 c 3.391,-15.318 15.999,-15.851 27.883,-14.354 v 0 c 7.773,0.98 14.779,5.606 18.28,12.073 v 0 c 2.313,4.272 2.65,8.76 0.92,12.313 v 0 z" id="path2166"></path></clipPath><radialGradient fx="0" fy="0" cx="0" cy="0" r="1" gradientUnits="userSpaceOnUse" gradientTransform="matrix(42.698002,0.5071933,0.5071933,-42.698002,427.5285,469.80948)" spreadMethod="pad" id="radialGradient2180"><stop style="stop-opacity:1;stop-color:#6ecbe5" offset="0" id="stop2174"></stop><stop style="stop-opacity:1;stop-color:#5db0bf" offset="0.505618" id="stop2176"></stop><stop style="stop-opacity:1;stop-color:#3d7f85" offset="1" id="stop2178"></stop></radialGradient><clipPath clipPathUnits="userSpaceOnUse" id="clipPath2190"><path d="m 447.065,438.124 c -16.187,-1.942 -30.37,5.154 -35.499,12.817 v 0 l -0.901,-0.605 c 5.439,-8.128 19.734,-15.307 36.53,-13.289 v 0 c 15.354,1.843 27.47,16.345 28.041,28.081 v 0 l -1.087,0.052 c -0.549,-11.302 -12.25,-25.275 -27.084,-27.056" id="path2188"></path></clipPath><radialGradient fx="0" fy="0" cx="0" cy="0" r="1" gradientUnits="userSpaceOnUse" gradientTransform="matrix(42.794937,0.5083447,0.5083447,-42.794937,427.51361,469.88248)" spreadMethod="pad" id="radialGradient2202"><stop style="stop-opacity:1;stop-color:#6ecbe5" offset="0" id="stop2196"></stop><stop style="stop-opacity:1;stop-color:#5db0bf" offset="0.505618" id="stop2198"></stop><stop style="stop-opacity:1;stop-color:#3d7f85" offset="1" id="stop2200"></stop></radialGradient><clipPath clipPathUnits="userSpaceOnUse" id="clipPath2212"><path d="m 453.623,490.778 c 0.486,-1.434 -0.113,-3.806 -1.567,-6.19 v 0 c -1.092,-1.787 -5.283,-7.71 -13.462,-8.924 v 0 c -6.716,-1 -15.18,0.438 -16.936,7.766 v 0 l -1.057,-0.253 c 1.804,-7.529 10.416,-9.739 18.153,-8.591 v 0 c 5.835,0.868 11.152,4.396 14.229,9.435 v 0 c 1.643,2.694 2.267,5.351 1.669,7.107 v 0 z" id="path2210"></path></clipPath><radialGradient fx="0" fy="0" cx="0" cy="0" r="1" gradientUnits="userSpaceOnUse" gradientTransform="matrix(42.914482,0.5097648,0.5097648,-42.914482,427.55524,469.68814)" spreadMethod="pad" id="radialGradient2224"><stop style="stop-opacity:1;stop-color:#6ecbe5" offset="0" id="stop2218"></stop><stop style="stop-opacity:1;stop-color:#5db0bf" offset="0.505618" id="stop2220"></stop><stop style="stop-opacity:1;stop-color:#3d7f85" offset="1" id="stop2222"></stop></radialGradient><clipPath clipPathUnits="userSpaceOnUse" id="clipPath2234"><path d="m 468.761,476.719 c 0.843,-5.29 -0.575,-10.781 -3.99,-15.46 v 0 c -4.338,-5.951 -11.369,-9.939 -19.801,-11.233 v 0 c -14.763,-2.264 -26.906,2.739 -33.306,13.724 v 0 l -0.936,-0.549 c 6.638,-11.39 19.18,-16.584 34.41,-14.246 v 0 c 8.716,1.338 15.999,5.478 20.512,11.662 v 0 c 3.587,4.916 5.072,10.694 4.184,16.272 v 0 z" id="path2232"></path></clipPath><radialGradient fx="0" fy="0" cx="0" cy="0" r="1" gradientUnits="userSpaceOnUse" gradientTransform="matrix(42.854118,0.5090477,0.5090477,-42.854118,427.57318,469.77582)" spreadMethod="pad" id="radialGradient2246"><stop style="stop-opacity:1;stop-color:#6ecbe5" offset="0" id="stop2240"></stop><stop style="stop-opacity:1;stop-color:#5db0bf" offset="0.505618" id="stop2242"></stop><stop style="stop-opacity:1;stop-color:#3d7f85" offset="1" id="stop2244"></stop></radialGradient><clipPath clipPathUnits="userSpaceOnUse" id="clipPath2256"><path d="m 425.336,429.567 0.986,0.448 c -6.33,14 -4.534,31.041 4.462,42.408 v 0 l -0.855,0.673 c -9.239,-11.675 -11.087,-29.166 -4.593,-43.529" id="path2254"></path></clipPath><radialGradient fx="0" fy="0" cx="0" cy="0" r="1" gradientUnits="userSpaceOnUse" gradientTransform="matrix(42.615261,2.1037214,2.0952041,-42.615261,426.80829,470.00586)" spreadMethod="pad" id="radialGradient2268"><stop style="stop-opacity:1;stop-color:#6ecbe5" offset="0" id="stop2262"></stop><stop style="stop-opacity:1;stop-color:#5db0bf" offset="0.505618" id="stop2264"></stop><stop style="stop-opacity:1;stop-color:#3d7f85" offset="1" id="stop2266"></stop></radialGradient><clipPath clipPathUnits="userSpaceOnUse" id="clipPath2278"><path d="m 413.434,445.593 1.08,0.097 c -1.116,12.369 3.763,24.842 12.689,31.311 v 0 l -0.646,0.873 c -9.22,-6.686 -14.273,-19.55 -13.123,-32.281" id="path2276"></path></clipPath><radialGradient fx="0" fy="0" cx="0" cy="0" r="1" gradientUnits="userSpaceOnUse" gradientTransform="matrix(42.941509,2.1198266,2.1112444,-42.941509,427.44894,470.2247)" spreadMethod="pad" id="radialGradient2290"><stop style="stop-opacity:1;stop-color:#6ecbe5" offset="0" id="stop2284"></stop><stop style="stop-opacity:1;stop-color:#5db0bf" offset="0.505618" id="stop2286"></stop><stop style="stop-opacity:1;stop-color:#3d7f85" offset="1" id="stop2288"></stop></radialGradient><clipPath clipPathUnits="userSpaceOnUse" id="clipPath2300"><path d="m 403.761,457.338 c 0,-21.676 17.575,-39.248 39.252,-39.248 v 0 c 21.681,0 39.256,17.572 39.256,39.248 v 0 c 0,21.68 -17.575,39.257 -39.256,39.257 v 0 c -21.677,0 -39.252,-17.577 -39.252,-39.257 m 8.244,0 c 0,17.129 13.884,31.009 31.008,31.009 v 0 c 17.128,0 31.01,-13.88 31.01,-31.009 v 0 c 0,-17.123 -13.882,-31.007 -31.01,-31.007 v 0 c -17.124,0 -31.008,13.884 -31.008,31.007" id="path2298"></path></clipPath><radialGradient fx="0" fy="0" cx="0" cy="0" r="1" gradientUnits="userSpaceOnUse" gradientTransform="matrix(65.953308,0,0,-66.078613,430.9325,479.15097)" spreadMethod="pad" id="radialGradient2310"><stop style="stop-opacity:1;stop-color:#ffffff" offset="0" id="stop2306"></stop><stop style="stop-opacity:1;stop-color:#dad8ca" offset="1" id="stop2308"></stop></radialGradient><clipPath clipPathUnits="userSpaceOnUse" id="clipPath2320"><path d="m 426.523,496.893 v -78.795 h 35.425 v 14.708 h -11.659 v 49.031 h 11.659 v 15.056 z" id="path2318"></path></clipPath><radialGradient fx="0" fy="0" cx="0" cy="0" r="1" gradientUnits="userSpaceOnUse" gradientTransform="matrix(66.221153,0,0,-66.221153,430.9296,479.3844)" spreadMethod="pad" id="radialGradient2330"><stop style="stop-opacity:1;stop-color:#ffffff" offset="0" id="stop2326"></stop><stop style="stop-opacity:1;stop-color:#dad8ca" offset="1" id="stop2328"></stop></radialGradient><clipPath clipPathUnits="userSpaceOnUse" id="clipPath2340"><path d="m 429.314,494.102 v -73.21 h 29.841 v 9.119 h -11.657 v 54.617 h 11.657 v 9.474 z" id="path2338"></path></clipPath><radialGradient fx="0" fy="0" cx="0" cy="0" r="1" gradientUnits="userSpaceOnUse" gradientTransform="matrix(56.653492,0,0,-56.653492,431.76074,475.08191)" spreadMethod="pad" id="radialGradient2352"><stop style="stop-opacity:1;stop-color:#36adcf" offset="0" id="stop2346"></stop><stop style="stop-opacity:1;stop-color:#1a899b" offset="0.505618" id="stop2348"></stop><stop style="stop-opacity:1;stop-color:#13646d" offset="1" id="stop2350"></stop></radialGradient></defs><g id="g10" transform="matrix(1.3333333,0,0,-1.3333333,-367.8382,731.42204)"><g id="g4403" transform="matrix(2.915489,0,0,2.915489,-859.9836,-868.50416)"><g id="g4320"><g id="g4238"><g id="g1736" transform="matrix(1.7707418,0,0,1.7707418,-291.79096,-426.97728)"><g id="g1738" clip-path="url(#clipPath1742)"><g id="g1744"><g id="g1746"><path d="m 384.803,457.508 c 0,-32.093 26.017,-58.111 58.11,-58.111 v 0 c 32.094,0 58.111,26.018 58.111,58.111 v 0 c 0,32.094 -26.017,58.11 -58.111,58.11 v 0 c -32.093,0 -58.11,-26.016 -58.11,-58.11" style="fill:#ffffff;fill-opacity:1;stroke:none" id="path1754"></path></g></g></g></g><g id="g3936" transform="matrix(1.0000112,0,0,1.0000112,193.67918,-39.459092)"><g id="g3861"><g id="g418" transform="matrix(1.7707081,0,0,1.7707081,265.98004,345.27365)"><path d="m 0,0 -0.405,0.136 -0.784,-1.879 0.297,-0.124 C -0.218,-2.149 0.294,-2.008 0.59,-1.3 0.838,-0.705 0.611,-0.255 0,0" style="fill:#002843;fill-opacity:1;fill-rule:nonzero;stroke:none" id="path420"></path></g><g id="g422" transform="matrix(1.7707081,0,0,1.7707081,342.5984,350.69326)"><path d="m 0,0 -0.347,-0.249 1.06,-1.737 0.275,0.168 c 0.624,0.383 0.809,0.881 0.409,1.535 C 1.061,0.267 0.564,0.346 0,0" style="fill:#002843;fill-opacity:1;fill-rule:nonzero;stroke:none" id="path424"></path></g><g id="g426" transform="matrix(1.7707081,0,0,1.7707081,334.72796,346.60275)"><path d="m 0,0 c -0.945,-0.446 -0.866,-1.596 -0.396,-2.596 0.582,-1.241 1.675,-1.89 2.503,-1.5 0.991,0.467 0.828,1.634 0.358,2.634 C 1.856,-0.166 0.834,0.394 0,0" style="fill:#002843;fill-opacity:1;fill-rule:nonzero;stroke:none" id="path428"></path></g><g id="g430" transform="matrix(1.7707081,0,0,1.7707081,214.43774,413.00979)"><path d="m 0,0 -0.002,0.018 -2.124,0.386 0.151,-1.273 z" style="fill:#002843;fill-opacity:1;fill-rule:nonzero;stroke:none" id="path432"></path></g><g id="g434" transform="matrix(1.7707081,0,0,1.7707081,311.77126,507.4868)"><path d="M 0,0 C 0.369,-0.064 0.696,0.036 0.99,0.302 1.28,0.568 1.46,0.901 1.531,1.297 1.602,1.695 1.547,2.07 1.37,2.426 1.19,2.783 0.917,2.993 0.549,3.056 0.205,3.119 -0.119,3.017 -0.423,2.757 -0.722,2.495 -0.911,2.163 -0.982,1.759 -1.052,1.363 -0.997,0.985 -0.815,0.63 -0.634,0.273 -0.362,0.066 0,0" style="fill:#002843;fill-opacity:1;fill-rule:nonzero;stroke:none" id="path436"></path></g><g id="g438" transform="matrix(1.7707081,0,0,1.7707081,306.06143,338.95258)"><path d="m 0,0 c -1.04,-0.088 -1.367,-1.194 -1.274,-2.296 0.114,-1.366 0.912,-2.357 1.822,-2.279 1.092,0.091 1.346,1.242 1.253,2.344 C 1.682,-0.803 0.918,0.077 0,0" style="fill:#002843;fill-opacity:1;fill-rule:nonzero;stroke:none" id="path440"></path></g><g id="g442" transform="matrix(1.7707081,0,0,1.7707081,254.4398,499.45646)"><path d="M 0,0 C 0.262,-0.1 0.51,-0.084 0.743,0.04 0.976,0.167 1.122,0.366 1.188,0.641 1.254,0.914 1.214,1.184 1.068,1.45 0.927,1.713 0.725,1.893 0.459,1.991 0.194,2.087 -0.055,2.075 -0.287,1.947 -0.521,1.822 -0.668,1.623 -0.728,1.35 -0.788,1.078 -0.751,0.81 -0.607,0.544 -0.463,0.278 -0.262,0.099 0,0" style="fill:#002843;fill-opacity:1;fill-rule:nonzero;stroke:none" id="path444"></path></g><g id="g446" transform="matrix(1.7707081,0,0,1.7707081,268.24991,376.80802)"><path d="M 0,0 C 0.285,-0.193 0.577,-0.375 0.869,-0.558 V 7.563 C -0.297,7.97 -1.416,8.42 -2.494,8.906 -1.994,5.872 -1.158,2.883 0,0" style="fill:#002843;fill-opacity:1;fill-rule:nonzero;stroke:none" id="path448"></path></g><g id="g450" transform="matrix(1.7707081,0,0,1.7707081,263.4968,394.94998)"><path d="M 0,0 C 1.127,-0.532 2.322,-1.011 3.553,-1.455 V 8.37 C 2.257,8.814 1.006,9.331 -0.192,9.93 -0.507,6.648 -0.44,3.309 0,0" style="fill:#002843;fill-opacity:1;fill-rule:nonzero;stroke:none" id="path452"></path></g><g id="g454" transform="matrix(1.7707081,0,0,1.7707081,344.63046,391.77918)"><path d="m 0,0 c 3.305,4.93 5.234,10.859 5.234,17.24 0,0.552 -0.015,1.1 -0.044,1.644 C 4.402,16.619 3.269,14.351 1.838,12.173 1.852,8.318 1.234,4.253 0,0" style="fill:#002843;fill-opacity:1;fill-rule:nonzero;stroke:none" id="path456"></path></g><g id="g458" transform="matrix(1.7707081,0,0,1.7707081,248.48562,402.29152)"><path d="m 0,0 c 0.009,-0.115 0.01,-0.23 0.021,-0.345 l -0.229,-0.021 c 2.074,-5.1 5.465,-9.521 9.753,-12.845 -0.959,2.696 -1.648,5.47 -2.062,8.276 C 4.593,-3.515 2.065,-1.833 0,0" style="fill:#002843;fill-opacity:1;fill-rule:nonzero;stroke:none" id="path460"></path></g><g id="g462" transform="matrix(1.7707081,0,0,1.7707081,254.86938,441.464)"><path d="m 0,0 c -0.839,1.232 -1.565,2.655 -2.159,4.292 -1.696,-3.031 -2.895,-6.375 -3.493,-9.925 0.677,-1.042 1.403,-2.03 2.188,-2.953 C -2.651,-5.545 -1.484,-2.649 0,0" style="fill:#002843;fill-opacity:1;fill-rule:nonzero;stroke:none" id="path464"></path></g><g id="g466" transform="matrix(1.7707081,0,0,1.7707081,244.4546,428.62495)"><path d="m 0,0 c -0.134,-1.172 -0.211,-2.361 -0.211,-3.568 0,-2.922 0.413,-5.745 1.169,-8.425 0.037,-0.042 0.076,-0.085 0.115,-0.127 -0.032,3.226 0.325,6.423 1.037,9.495 C 1.367,-1.796 0.657,-0.928 0,0" style="fill:#002843;fill-opacity:1;fill-rule:nonzero;stroke:none" id="path468"></path></g><g id="g470" transform="matrix(1.7707081,0,0,1.7707081,298.81392,522.9913)"><path d="m 0,0 c -31.314,0 -56.694,-25.383 -56.694,-56.694 0,-31.309 25.38,-56.692 56.694,-56.692 31.31,0 56.692,25.383 56.692,56.692 C 56.692,-25.383 31.31,0 0,0 m 51.091,-53.213 c 0.817,0.03 1.423,-0.592 1.457,-1.489 0.014,-0.401 -0.065,-0.753 -0.236,-1.091 l -1.077,-0.171 -0.008,0.2 c 0.709,0.201 1.076,0.485 1.053,1.121 -0.025,0.671 -0.562,0.808 -0.879,0.796 -0.418,-0.015 -0.677,-0.226 -1.012,-0.823 -0.546,-0.98 -0.924,-1.248 -1.721,-1.278 -0.694,-0.026 -1.346,0.464 -1.374,1.222 -0.013,0.332 0.064,0.744 0.064,1.031 l 0.997,0.118 0.006,-0.184 c -0.404,-0.111 -0.825,-0.319 -0.804,-0.894 0.017,-0.453 0.376,-0.745 0.845,-0.727 0.49,0.018 0.678,0.156 1.128,1.011 0.495,0.943 0.918,1.134 1.561,1.158 m -3.634,19.165 2.288,-5.62 0.008,-0.076 -0.06,-0.042 -2.433,-0.99 c -0.557,-0.226 -1.02,-0.377 -1.387,-0.448 -0.368,-0.071 -0.715,-0.079 -1.044,-0.023 l -0.401,0.987 c 0.338,-0.051 0.698,-0.032 1.079,0.057 0.381,0.089 0.855,0.254 1.426,0.493 l 1.514,0.617 0.112,0.085 -0.023,0.145 -1.833,4.508 z m -2.902,-2.419 c 0.331,0.137 0.496,0.394 0.653,0.763 l 0.571,-1.404 -3.087,-1.256 0.324,-0.795 2.26,0.919 c 0.325,0.131 0.503,0.406 0.652,0.762 l 0.571,-1.404 -3.086,-1.255 1.107,-2.721 -0.762,-0.308 -2.992,7.352 0.761,0.308 0.766,-1.88 z m -4.141,12.564 c 0.288,0.251 0.352,0.593 0.382,1.056 l 1.07,-1.221 -1.287,-1.132 0.777,-0.883 -0.679,-0.595 -0.776,0.883 -1.694,-1.49 -0.713,0.814 z m -4.978,2.956 c 0.149,0.131 0.312,0.234 0.491,0.305 0.176,0.072 0.359,0.114 0.549,0.128 0.002,-0.004 -0.214,0.243 -0.658,0.746 l 0.606,0.53 1.34,-1.526 0.098,0.087 c 0.232,0.203 0.412,0.471 0.438,0.876 l 1.007,-1.147 -0.779,-0.684 1.352,-1.539 -0.602,-0.531 -0.668,0.76 c -0.041,-0.186 -0.104,-0.361 -0.198,-0.529 -0.097,-0.165 -0.217,-0.316 -0.366,-0.446 -0.383,-0.336 -0.839,-0.482 -1.371,-0.431 -0.528,0.053 -0.972,0.281 -1.331,0.688 -0.358,0.407 -0.525,0.877 -0.51,1.411 0.017,0.53 0.219,0.965 0.602,1.302 m -1.315,-2.236 3.696,-4.207 0.049,-0.13 -0.067,-0.123 -2.17,-1.908 -0.745,0.848 1.627,1.43 0.037,0.063 -0.027,0.064 -3.01,3.426 z m -13.287,10.194 1.473,2.624 c 0.183,0.325 0.156,0.782 0.043,1.184 l 3.276,-1.84 -0.397,-0.708 -1.85,1.039 -1.656,-2.944 -0.021,-0.144 0.084,-0.098 1.504,-0.845 c 0.226,-0.126 0.421,-0.218 0.592,-0.282 0.17,-0.059 0.321,-0.095 0.452,-0.107 l 1.912,3.406 c 0.126,0.223 0.187,0.573 0.055,1.039 l 1.299,-0.729 -1.281,-2.284 0.597,-0.335 0.825,1.468 c 0.127,0.232 0.188,0.576 0.056,1.041 l 1.299,-0.728 -4.067,-7.244 -0.897,0.504 2.387,4.251 -0.597,0.334 -2.388,-4.25 -0.897,0.504 1.298,2.314 c -0.179,0.026 -0.373,0.082 -0.581,0.173 -0.207,0.089 -0.468,0.22 -0.777,0.393 l -1.346,0.756 c -0.315,0.18 -0.507,0.39 -0.576,0.635 -0.069,0.247 -0.009,0.536 0.179,0.873 M 5.243,-6.803 c 0.112,0.634 0.437,1.134 0.975,1.5 0.536,0.368 1.134,0.492 1.785,0.377 0.593,-0.104 1.075,-0.382 1.449,-0.832 0.373,-0.452 0.55,-0.959 0.539,-1.527 l 1.207,-0.212 0.275,1.554 c 0.068,0.385 -0.078,0.723 -0.353,1.117 l 1.593,-0.281 -1.447,-8.179 -1.058,0.187 0.849,4.801 -1.229,0.217 C 9.631,-8.583 9.286,-8.975 8.793,-9.25 8.302,-9.526 7.768,-9.615 7.193,-9.513 6.54,-9.397 6.026,-9.076 5.643,-8.547 5.265,-8.019 5.13,-7.436 5.243,-6.803 m -11.269,1.045 -0.077,0.464 -0.058,0.126 -0.148,0.013 -4.918,-0.797 -0.132,0.804 6.107,0.988 0.069,-0.012 0.036,-0.072 0.232,-1.435 c 0.062,-0.381 0.083,-0.664 0.065,-0.849 -0.019,-0.186 -0.07,-0.36 -0.155,-0.518 l 1.125,0.181 0.127,-0.802 -3.324,-0.538 0.217,-1.339 2.342,0.381 0.073,-0.011 0.031,-0.063 0.462,-2.852 -1.112,-0.181 -0.333,2.051 -0.033,0.063 -0.069,0.011 -4.77,-0.771 -0.128,0.801 2.342,0.379 -0.217,1.338 -3.333,-0.541 -0.128,0.804 5.667,0.916 c 0.084,0.191 0.128,0.393 0.127,0.612 -0.001,0.214 -0.031,0.497 -0.087,0.849 m -16.089,-2.735 3.945,-7.31 -0.955,-0.513 -1.096,2.035 c -0.108,-0.196 -0.264,-0.367 -0.467,-0.515 -0.203,-0.148 -0.503,-0.326 -0.896,-0.539 l -3.75,-2.024 -0.385,0.717 2.089,1.126 c -0.203,0.378 -0.457,0.658 -0.959,0.806 l 1.361,0.733 0.551,-1.026 1.026,0.554 c 0.314,0.169 0.546,0.324 0.697,0.469 0.151,0.142 0.266,0.286 0.339,0.429 l -1.985,3.675 c -0.161,0.297 -0.518,0.484 -0.944,0.612 z m -4.624,-3.305 c 0.174,0.512 0.509,0.9 1.007,1.17 0.497,0.269 1.008,0.335 1.532,0.2 0.525,-0.135 0.912,-0.434 1.163,-0.899 0.252,-0.467 0.289,-0.957 0.114,-1.467 -0.173,-0.515 -0.511,-0.902 -1.009,-1.171 -0.5,-0.271 -1.009,-0.336 -1.529,-0.199 -0.521,0.134 -0.907,0.436 -1.159,0.902 -0.252,0.468 -0.29,0.954 -0.119,1.464 m -10.039,-7.15 0.061,0.036 0.073,-0.036 1.076,-0.977 c 0.287,-0.257 0.48,-0.463 0.582,-0.62 0.103,-0.156 0.17,-0.324 0.204,-0.501 l 0.765,0.844 0.602,-0.546 -2.26,-2.496 1.006,-0.909 1.592,1.761 0.061,0.034 0.066,-0.028 2.142,-1.938 -0.756,-0.837 -1.542,1.393 -0.063,0.029 -0.063,-0.037 -3.241,-3.581 -0.6,0.546 1.59,1.761 -1.004,0.908 -2.265,-2.505 -0.602,0.545 3.852,4.259 c -0.052,0.203 -0.147,0.386 -0.283,0.554 -0.136,0.169 -0.336,0.373 -0.601,0.612 l -0.347,0.314 -0.123,0.063 -0.124,-0.082 -3.348,-3.697 -0.6,0.545 z m -2.966,-17.149 -1.792,-4.192 c -0.097,-0.228 -0.222,-0.372 -0.377,-0.438 -0.154,-0.064 -0.349,-0.047 -0.582,0.052 l -0.949,0.408 c -0.325,0.136 -0.715,0.012 -1.073,-0.132 l 0.65,1.518 1.61,-0.686 0.103,-0.007 0.075,0.077 1.589,3.72 z m -7.59,3.145 2.077,-0.884 0.462,1.077 0.746,-0.319 -0.462,-1.079 2.659,-1.136 -0.428,-0.996 -4.581,1.958 c -0.332,0.142 -0.721,0.043 -1.11,-0.113 z m -1.61,-3.65 c 0.52,-0.224 0.853,-0.364 0.996,-0.427 l 0.807,1.884 0.739,-0.314 -0.402,-0.939 c 0.195,0.056 0.397,0.077 0.604,0.068 0.208,-0.012 0.409,-0.058 0.603,-0.141 0.476,-0.204 0.807,-0.56 0.996,-1.07 0.189,-0.509 0.173,-1.018 -0.044,-1.527 -0.22,-0.508 -0.575,-0.872 -1.074,-1.087 -0.499,-0.216 -0.986,-0.224 -1.461,-0.019 -0.195,0.083 -0.366,0.194 -0.517,0.338 -0.151,0.143 -0.274,0.304 -0.37,0.483 l -0.394,-0.922 -0.737,0.316 0.798,1.868 -0.096,0.039 c -0.436,0.186 -0.699,0.186 -1.047,0.044 z m -3.296,-20.654 0.264,-10e-4 c 0.008,-0.462 0.016,-0.794 0.731,-0.798 l 2.483,-0.015 0.021,3.521 -2.482,0.015 c -0.715,0.005 -0.728,-0.327 -0.74,-0.789 l -0.266,0.002 c 0.002,0.419 0.025,0.793 0.028,1.177 0.002,0.418 -0.006,0.828 -0.013,1.263 l 0.266,-10e-4 c 0.007,-0.462 0.015,-0.793 0.73,-0.798 l 5.129,-0.03 c 0.715,-0.004 0.726,0.326 0.739,0.789 l 0.266,-0.002 c -0.013,-0.41 -0.026,-0.81 -0.028,-1.203 -0.002,-0.4 0.005,-0.802 0.013,-1.238 l -0.265,0.002 c -0.007,0.462 -0.016,0.793 -0.731,0.798 l -2.227,0.013 -0.022,-3.521 2.228,-0.013 c 0.714,-0.004 0.726,0.327 0.74,0.788 l 0.265,-0.001 c -0.013,-0.462 -0.025,-0.872 -0.028,-1.29 -0.002,-0.375 0.015,-0.758 0.014,-1.151 l -0.266,0.002 c -0.007,0.462 -0.015,0.793 -0.731,0.798 l -5.129,0.03 c -0.713,0.004 -0.726,-0.327 -0.739,-0.789 l -0.266,0.002 c 0.013,0.392 0.025,0.784 0.028,1.176 0.002,0.41 -0.005,0.811 -0.012,1.264 m 0.553,-6.902 c -0.039,0.321 -0.088,0.648 -0.137,0.967 l 0.264,0.032 0.013,-0.104 c 0.026,-0.217 0.123,-0.424 0.295,-0.404 l 0.327,0.11 0.985,0.442 -0.175,1.472 -0.682,0.111 c -0.135,0.019 -0.494,0.09 -0.677,0.069 -0.242,-0.03 -0.25,-0.32 -0.23,-0.484 l 0.013,-0.104 -0.264,-0.032 c -0.025,0.295 -0.05,0.591 -0.086,0.885 -0.026,0.225 -0.066,0.475 -0.104,0.707 l 0.263,0.031 c 0.053,-0.44 0.282,-0.545 0.503,-0.588 l 3.85,-0.794 0.345,-0.047 0.14,0.034 0.374,-0.63 -4.147,-1.815 c -0.45,-0.193 -0.566,-0.339 -0.511,-0.798 l -0.264,-0.031 c -0.029,0.33 -0.057,0.651 -0.095,0.971 m 0.988,-5.639 3.27,3.77 -2.659,-0.608 c -0.717,-0.164 -0.867,-0.289 -0.722,-0.926 l -0.259,-0.059 c -0.053,0.282 -0.117,0.608 -0.183,0.896 -0.066,0.289 -0.142,0.576 -0.218,0.863 l 0.259,0.059 c 0.159,-0.696 0.567,-0.603 1.284,-0.439 l 2.769,0.634 c 0.449,0.102 0.352,0.617 0.314,0.787 l 0.258,0.059 c 0.037,-0.206 0.071,-0.404 0.116,-0.599 0.041,-0.179 0.099,-0.389 0.149,-0.565 l -2.974,-3.408 2.609,0.598 c 0.687,0.157 0.645,0.388 0.543,0.839 l 0.258,0.059 c 0.052,-0.274 0.11,-0.574 0.172,-0.845 0.056,-0.247 0.128,-0.516 0.194,-0.761 l -0.259,-0.059 c -0.09,0.4 -0.153,0.582 -0.651,0.468 l -4.223,-0.967 z m 1.528,-3.64 -0.251,-0.086 c -0.095,0.308 -0.204,0.658 -0.316,0.987 -0.107,0.313 -0.227,0.632 -0.344,0.942 l 0.251,0.086 c 0.133,-0.387 0.267,-0.59 0.634,-0.463 l 3.382,1.161 c 0.367,0.126 0.349,0.369 0.217,0.756 l 0.251,0.087 c 0.098,-0.317 0.198,-0.642 0.305,-0.955 0.113,-0.33 0.241,-0.673 0.355,-0.975 l -0.251,-0.086 c -0.132,0.387 -0.267,0.59 -0.633,0.464 l -3.383,-1.161 c -0.367,-0.127 -0.349,-0.369 -0.217,-0.757 m 0.742,-2.168 -0.252,-0.087 c -0.044,0.16 -0.101,0.361 -0.155,0.518 -0.064,0.19 -0.139,0.376 -0.217,0.571 l 1.841,2.512 2.152,-0.8 0.266,-0.018 0.101,0.209 -0.062,0.181 0.251,0.087 c 0.072,-0.243 0.156,-0.519 0.238,-0.757 0.082,-0.239 0.189,-0.488 0.27,-0.727 l -0.251,-0.087 c -0.167,0.487 -0.374,0.618 -2.456,1.404 l -1.49,-2.179 c -0.183,-0.257 -0.331,-0.547 -0.236,-0.827 m 0.95,-3.065 c -0.471,1.011 -0.299,1.832 0.776,2.332 l 2.547,1.188 c 0.333,0.156 0.179,0.488 0.08,0.701 l 0.241,0.113 c 0.126,-0.298 0.263,-0.617 0.399,-0.911 0.129,-0.276 0.274,-0.564 0.408,-0.828 l -0.241,-0.113 c -0.11,0.237 -0.238,0.514 -0.553,0.367 l -2.52,-1.175 c -0.851,-0.397 -0.985,-1.007 -0.703,-1.615 0.514,-1.106 1.524,-0.635 2.449,-0.203 l 1.093,0.508 c 0.927,0.432 0.964,0.546 0.718,1.076 l 0.241,0.112 c 0.111,-0.265 0.228,-0.538 0.348,-0.799 0.103,-0.221 0.211,-0.431 0.324,-0.647 l -0.241,-0.112 c -0.125,0.268 -0.266,0.452 -0.869,0.171 l -1.88,-0.876 c -1.066,-0.497 -2.082,-0.442 -2.617,0.711 m 2.9,-4.635 -0.228,-0.138 c -0.156,0.283 -0.336,0.601 -0.514,0.9 -0.17,0.285 -0.354,0.571 -0.532,0.85 l 0.227,0.136 c 0.211,-0.351 0.384,-0.521 0.716,-0.321 l 3.067,1.842 c 0.333,0.201 0.265,0.434 0.055,0.785 l 0.227,0.137 c 0.162,-0.289 0.327,-0.586 0.497,-0.869 0.179,-0.3 0.376,-0.609 0.551,-0.879 l -0.229,-0.137 c -0.21,0.35 -0.383,0.521 -0.716,0.321 l -3.067,-1.843 c -0.333,-0.199 -0.264,-0.434 -0.054,-0.784 m 1.235,-1.108 c -0.125,-0.289 -0.211,-0.604 -0.058,-0.858 l -0.228,-0.137 c -0.076,0.148 -0.175,0.332 -0.26,0.473 -0.103,0.172 -0.214,0.34 -0.331,0.513 l 1.278,2.842 2.272,-0.333 0.263,0.037 0.055,0.226 -0.098,0.165 0.228,0.137 c 0.121,-0.222 0.26,-0.475 0.39,-0.691 0.129,-0.217 0.285,-0.438 0.415,-0.655 l -0.228,-0.137 c -0.263,0.442 -0.494,0.527 -2.694,0.86 z m 3.427,-6.113 c -0.927,1.096 -0.861,2.284 0.447,3.429 l 2.845,2.416 c 0.545,0.463 0.339,0.723 0.049,1.082 l 0.203,0.171 c 0.256,-0.318 0.507,-0.63 0.76,-0.93 0.259,-0.307 0.525,-0.606 0.814,-0.931 l -0.202,-0.172 c -0.306,0.346 -0.527,0.592 -1.073,0.128 l -2.65,-2.25 c -0.928,-0.788 -1.604,-1.808 -0.726,-2.845 0.933,-1.104 2.021,-0.363 2.559,0.094 l 2.22,1.886 c 1.279,1.086 1.221,1.106 0.744,1.717 l 0.202,0.172 c 0.229,-0.286 0.457,-0.571 0.694,-0.851 0.191,-0.226 0.392,-0.432 0.584,-0.658 l -0.203,-0.172 c -0.45,0.532 -0.748,0.267 -1.699,-0.54 l -2.244,-1.906 c -1.06,-0.9 -2.333,-1.01 -3.324,0.16 m 5.473,-5.55 0.586,4.959 -1.856,-2.001 c -0.502,-0.54 -0.556,-0.727 -0.078,-1.171 l -0.18,-0.196 c -0.204,0.203 -0.439,0.436 -0.656,0.638 -0.216,0.201 -0.44,0.395 -0.663,0.59 l 0.18,0.195 c 0.522,-0.487 0.808,-0.179 1.309,0.36 l 1.932,2.086 c 0.314,0.336 -0.055,0.708 -0.182,0.826 l 0.181,0.195 c 0.146,-0.15 0.285,-0.294 0.432,-0.431 0.134,-0.124 0.3,-0.264 0.441,-0.381 l -0.546,-4.494 1.822,1.965 c 0.479,0.517 0.314,0.684 -0.023,0.999 l 0.181,0.195 c 0.197,-0.197 0.412,-0.413 0.616,-0.602 0.185,-0.173 0.396,-0.355 0.587,-0.519 l -0.18,-0.196 c -0.3,0.28 -0.453,0.395 -0.801,0.02 l -2.949,-3.179 z m 3.225,-2.104 -0.164,-0.209 c -0.246,0.206 -0.528,0.441 -0.802,0.656 -0.26,0.204 -0.533,0.405 -0.8,0.602 l 0.164,0.209 c 0.322,-0.253 0.545,-0.349 0.784,-0.043 l 2.206,2.819 c 0.24,0.306 0.093,0.5 -0.229,0.752 l 0.164,0.21 c 0.253,-0.213 0.514,-0.43 0.775,-0.635 0.273,-0.215 0.567,-0.432 0.827,-0.624 l -0.164,-0.209 c -0.322,0.253 -0.544,0.35 -0.784,0.044 l -2.206,-2.819 c -0.24,-0.306 -0.093,-0.5 0.229,-0.753 m 2.203,-2.03 1.126,4.521 c 0.099,0.388 0.113,0.502 -0.228,0.729 l 0.147,0.221 c 0.241,-0.172 0.496,-0.354 0.749,-0.523 0.269,-0.178 0.542,-0.347 0.817,-0.518 l -0.148,-0.221 -0.173,0.116 c -0.167,0.11 -0.295,0.122 -0.397,-0.031 l -0.096,-0.256 -0.867,-3.342 2.544,1.982 c 0.142,0.102 0.255,0.211 0.328,0.322 0.148,0.221 -0.077,0.37 -0.331,0.539 l 0.147,0.222 c 0.227,-0.163 0.467,-0.335 0.7,-0.489 0.173,-0.115 0.374,-0.237 0.555,-0.344 l -0.148,-0.222 c -0.231,0.154 -0.312,0.207 -0.85,-0.196 l -3.621,-2.679 z m 5.93,-3.32 c -0.547,0.305 -1.087,0.606 -1.639,0.902 -0.491,0.263 -0.994,0.521 -1.491,0.774 l 0.127,0.235 c 0.36,-0.193 0.595,-0.249 0.778,0.094 l 1.687,3.158 c 0.183,0.343 0.004,0.509 -0.356,0.701 l 0.125,0.235 c 0.341,-0.194 0.681,-0.388 1.026,-0.573 0.629,-0.337 1.271,-0.669 1.897,-0.992 l -0.464,-0.982 -0.162,0.087 c 0.236,0.663 0.134,0.787 -0.656,1.21 l -0.568,0.304 -0.91,-1.706 0.637,-0.341 c 0.383,-0.206 0.557,-0.287 0.889,0.336 l 0.199,-0.107 c -0.132,-0.231 -0.27,-0.47 -0.4,-0.713 -0.13,-0.244 -0.257,-0.501 -0.384,-0.758 l -0.2,0.107 c 0.265,0.496 0.195,0.604 -0.259,0.846 l -0.636,0.342 -0.704,-1.319 c -0.207,-0.388 -0.1,-0.631 0.537,-0.971 0.775,-0.416 0.891,-0.327 1.508,0.109 l 0.192,-0.104 z m 5.823,1.576 c -0.225,-0.539 -0.68,-0.77 -1.324,-0.755 0.125,-2.116 0.239,-2.43 0.694,-2.787 l -0.102,-0.246 c -0.149,0.074 -0.322,0.157 -0.474,0.221 -0.176,0.074 -0.349,0.135 -0.529,0.2 -0.14,0.546 -0.233,1.727 -0.314,2.704 l -0.273,0.093 -0.265,0.133 -0.639,-1.53 c -0.161,-0.387 0.068,-0.516 0.421,-0.664 l -0.102,-0.245 c -0.293,0.133 -0.626,0.284 -0.947,0.418 -0.306,0.128 -0.623,0.25 -0.931,0.368 l 0.102,0.245 c 0.377,-0.157 0.617,-0.192 0.767,0.167 l 1.38,3.305 c 0.149,0.359 -0.044,0.506 -0.422,0.664 l 0.103,0.246 c 0.302,-0.138 0.61,-0.278 0.916,-0.406 0.385,-0.161 0.93,-0.367 1.204,-0.481 0.666,-0.28 1.05,-0.896 0.735,-1.65 m 3.44,-0.886 c 0.034,0.419 -0.017,0.886 -0.563,1.062 -0.431,0.138 -0.827,-0.099 -0.971,-0.548 -0.149,-0.469 -0.085,-0.694 0.564,-1.407 0.716,-0.788 0.75,-1.251 0.554,-1.865 -0.25,-0.779 -1.041,-1.138 -1.893,-0.864 -0.382,0.122 -0.685,0.317 -0.944,0.593 l 0.207,1.073 0.19,-0.061 c -0.053,-0.736 0.089,-1.179 0.693,-1.373 0.638,-0.205 0.95,0.254 1.046,0.556 0.128,0.399 0.019,0.714 -0.427,1.234 -0.733,0.848 -0.855,1.295 -0.611,2.055 0.212,0.663 0.894,1.11 1.615,0.879 0.315,-0.101 0.676,-0.314 0.946,-0.412 l -0.232,-0.978 z m 3.478,-0.172 c -0.396,0.098 -0.639,0.094 -0.732,-0.284 l -0.854,-3.479 c -0.093,-0.377 0.121,-0.493 0.518,-0.591 l -0.064,-0.258 c -0.31,0.087 -0.662,0.184 -1,0.268 -0.321,0.079 -0.653,0.15 -0.976,0.219 l 0.064,0.258 c 0.396,-0.098 0.639,-0.094 0.732,0.284 l 0.853,3.478 c 0.093,0.378 -0.12,0.494 -0.517,0.591 l 0.064,0.258 c 0.318,-0.088 0.645,-0.179 0.965,-0.258 0.339,-0.084 0.696,-0.161 1.011,-0.227 z m 4.256,-1.626 -0.231,0.039 c 0.056,0.654 0.008,0.787 -0.343,0.847 l -0.859,0.144 -0.66,-3.916 c -0.063,-0.383 0.158,-0.483 0.613,-0.56 l -0.046,-0.262 c -0.365,0.073 -0.725,0.143 -1.069,0.202 -0.325,0.055 -0.661,0.101 -1.04,0.155 l 0.044,0.262 c 0.454,-0.076 0.697,-0.055 0.761,0.328 l 0.66,3.916 -0.652,0.11 c -0.523,0.088 -0.64,0.025 -0.901,-0.636 l -0.223,0.037 0.345,1.312 0.171,-0.029 c -0.033,-0.191 0.157,-0.275 0.336,-0.306 l 2.737,-0.462 c 0.197,-0.034 0.3,-0.051 0.496,0.165 l 0.171,-0.029 z m 4.966,0.442 c -0.286,0.021 -0.444,0.012 -0.85,-0.522 l -1.238,-1.642 -0.135,-1.817 c -0.026,-0.347 0.295,-0.371 0.677,-0.399 l -0.02,-0.265 c -0.346,0.036 -0.71,0.073 -1.057,0.099 -0.355,0.026 -0.721,0.042 -1.068,0.059 l 0.019,0.264 c 0.434,-0.031 0.677,-0.049 0.706,0.349 l 0.115,1.541 -1.215,2.318 c -0.147,0.246 -0.28,0.338 -0.515,0.356 l 0.02,0.265 c 0.278,-0.031 0.615,-0.066 0.918,-0.089 0.321,-0.024 0.661,-0.039 0.982,-0.052 l -0.02,-0.265 c -0.164,0.012 -0.477,0.035 -0.486,-0.098 -0.008,-0.091 0.033,-0.146 0.1,-0.285 l 0.843,-1.694 0.944,1.315 c 0.105,0.137 0.204,0.283 0.213,0.405 0.011,0.153 -0.017,0.237 -0.486,0.273 l 0.02,0.265 c 0.259,-0.03 0.571,-0.063 0.831,-0.082 0.217,-0.016 0.47,-0.015 0.721,-0.033 z m 1.224,8.083 c -0.132,0 -0.261,0.008 -0.392,0.01 h -16.101 v 3.623 c -13.438,6.232 -22.762,19.834 -22.762,35.619 0,15.787 9.324,29.388 22.762,35.62 v 3.933 h 35.424 v -5.164 c 12.113,-6.683 20.322,-19.576 20.322,-34.389 0,-14.812 -8.209,-27.704 -20.322,-34.387 v -4.855 H 0.492 c -0.131,-0.002 -0.26,-0.01 -0.391,-0.01 m 4.472,-12.732 c -1.43,-0.121 -2.466,0.88 -2.596,2.441 -0.134,1.601 0.944,2.698 2.219,2.806 1.404,0.118 2.416,-0.926 2.539,-2.395 0.106,-1.265 -0.671,-2.727 -2.162,-2.852 m 4.544,3.504 0.804,0.154 c 0.427,0.081 0.612,0.127 0.496,0.74 l 0.222,0.043 c 0.041,-0.263 0.085,-0.536 0.136,-0.808 0.052,-0.271 0.113,-0.551 0.176,-0.831 l -0.222,-0.042 c -0.121,0.633 -0.243,0.672 -0.748,0.576 l -0.802,-0.154 0.281,-1.478 c 0.101,-0.533 0.311,-0.608 0.712,-0.53 l 0.18,0.035 0.049,-0.262 c -0.335,-0.054 -0.695,-0.112 -1.157,-0.201 -0.325,-0.062 -0.656,-0.136 -0.979,-0.208 l -0.05,0.261 c 0.402,0.077 0.621,0.182 0.549,0.563 l -0.671,3.519 c -0.073,0.382 -0.315,0.398 -0.716,0.322 l -0.05,0.261 c 0.557,0.096 1.106,0.19 1.661,0.297 0.804,0.153 1.306,0.26 1.8,0.365 l 0.244,-1.099 -0.17,-0.033 c -0.244,0.673 -0.432,0.731 -1.192,0.585 l -0.915,-0.175 z m 8.674,2.202 c -0.329,0.633 -0.411,0.843 -1.135,0.593 l -1.002,-0.348 0.811,-2.351 c 0.234,-0.677 0.549,-0.578 0.988,-0.436 l 0.087,-0.252 c -0.415,-0.133 -0.796,-0.254 -1.174,-0.385 -0.37,-0.129 -0.744,-0.269 -1.161,-0.425 l -0.087,0.252 c 0.715,0.248 0.727,0.426 0.404,1.364 l -1.482,4.294 c -0.274,0.793 -0.419,0.786 -1.079,0.59 l -0.085,0.252 c 0.583,0.202 1.189,0.39 1.79,0.599 0.748,0.259 1.505,0.522 2.23,0.795 l 0.519,-1.348 -0.176,-0.104 c -0.365,0.794 -0.804,0.945 -1.7,0.635 l -0.97,-0.337 0.948,-2.747 0.97,0.337 c 0.674,0.233 0.692,0.369 0.561,1.093 l 0.19,0.066 c 0.046,-0.19 0.21,-0.717 0.331,-1.066 0.106,-0.31 0.28,-0.758 0.386,-1.014 z m 4.65,-0.91 c -1.299,-0.612 -2.618,-0.034 -3.283,1.382 -0.682,1.454 -0.054,2.858 1.103,3.404 1.275,0.601 2.589,-0.024 3.214,-1.357 0.539,-1.148 0.32,-2.79 -1.034,-3.429 m 6.5,3.786 c -0.162,-0.1 -0.313,-0.204 -0.471,-0.313 -0.525,0.206 -1.533,0.823 -2.372,1.329 l -0.234,-0.168 -0.263,-0.137 0.863,-1.414 c 0.218,-0.358 0.458,-0.248 0.784,-0.047 l 0.138,-0.228 c -0.28,-0.159 -0.597,-0.342 -0.894,-0.524 -0.281,-0.172 -0.566,-0.359 -0.842,-0.541 l -0.138,0.228 c 0.348,0.214 0.517,0.389 0.314,0.721 l -1.865,3.054 c -0.203,0.332 -0.436,0.261 -0.785,0.048 l -0.138,0.227 c 0.287,0.163 0.582,0.333 0.863,0.506 0.356,0.218 0.844,0.54 1.096,0.695 0.615,0.377 1.339,0.329 1.766,-0.37 0.303,-0.497 0.224,-1.001 -0.165,-1.516 1.785,-1.137 2.106,-1.228 2.661,-1.067 l 0.138,-0.228 c -0.146,-0.077 -0.314,-0.169 -0.456,-0.255 m 2.433,1.744 c -0.446,-0.334 -0.893,-0.683 -1.332,-1.025 l -0.159,0.213 c 0.327,0.245 0.479,0.436 0.245,0.747 l -2.143,2.866 c -0.233,0.311 -0.458,0.219 -0.785,-0.027 l -0.16,0.213 c 0.32,0.227 0.64,0.454 0.953,0.689 0.571,0.429 1.142,0.872 1.7,1.303 l 0.691,-0.836 -0.146,-0.11 c -0.5,0.494 -0.655,0.454 -1.372,-0.084 l -0.515,-0.388 1.158,-1.547 0.577,0.434 c 0.348,0.261 0.496,0.385 0.073,0.95 l 0.18,0.135 c 0.152,-0.218 0.312,-0.444 0.476,-0.665 0.166,-0.222 0.345,-0.445 0.523,-0.67 l -0.18,-0.135 c -0.338,0.45 -0.465,0.431 -0.876,0.123 l -0.578,-0.434 0.894,-1.196 c 0.264,-0.352 0.529,-0.357 1.107,0.076 0.703,0.529 0.672,0.671 0.54,1.416 l 0.174,0.131 0.464,-1.072 c -0.507,-0.367 -1.009,-0.73 -1.509,-1.107 m 3.135,2.531 c -0.249,-0.217 -0.499,-0.448 -0.741,-0.674 l -0.174,0.201 c 0.308,0.269 0.445,0.469 0.19,0.763 l -2.349,2.7 c -0.255,0.294 -0.471,0.185 -0.78,-0.084 l -0.175,0.201 c 0.256,0.21 0.518,0.425 0.768,0.643 0.262,0.229 0.53,0.477 0.767,0.697 l 0.175,-0.201 c -0.309,-0.269 -0.445,-0.47 -0.19,-0.763 l 2.349,-2.7 c 0.253,-0.294 0.471,-0.186 0.779,0.084 l 0.175,-0.201 c -0.249,-0.204 -0.532,-0.437 -0.794,-0.666 m 3.477,3.117 c -0.975,-1.007 -2.488,-0.909 -3.515,0.089 -1.173,1.14 -1.162,2.636 -0.21,3.618 0.157,0.163 0.307,0.273 0.635,0.524 l 0.682,0.454 0.921,-0.798 -0.133,-0.138 c -0.555,0.236 -1.132,0.493 -1.761,-0.158 -0.661,-0.681 -0.735,-1.728 0.438,-2.867 0.682,-0.663 1.957,-1.271 2.921,-0.277 0.151,0.157 0.246,0.343 0.312,0.559 l -0.552,0.561 c -0.41,0.399 -0.569,0.456 -0.987,0.024 l -0.19,0.185 c 0.238,0.231 0.512,0.485 0.742,0.723 0.183,0.188 0.385,0.428 0.56,0.622 l 0.191,-0.185 c -0.285,-0.294 -0.308,-0.406 -0.059,-0.648 l 0.47,-0.456 c 0.132,-0.129 0.242,-0.235 0.395,-0.165 l 0.139,-0.136 c -0.207,-0.419 -0.508,-1.024 -0.999,-1.531 m 4.583,5.433 -4.983,0.15 2.153,-1.677 c 0.581,-0.453 0.772,-0.491 1.171,0.025 l 0.21,-0.163 c -0.184,-0.221 -0.396,-0.476 -0.577,-0.71 -0.182,-0.234 -0.355,-0.474 -0.528,-0.714 l -0.21,0.163 c 0.438,0.564 0.107,0.822 -0.473,1.274 l -2.242,1.746 c -0.362,0.283 -0.699,-0.117 -0.806,-0.255 l -0.209,0.164 c 0.136,0.158 0.267,0.311 0.39,0.469 0.111,0.144 0.237,0.323 0.341,0.473 l 4.515,-0.15 -2.112,1.646 c -0.556,0.433 -0.708,0.254 -0.991,-0.11 l -0.21,0.163 c 0.179,0.213 0.374,0.448 0.545,0.668 0.155,0.199 0.318,0.426 0.465,0.632 l 0.21,-0.163 c -0.252,-0.324 -0.353,-0.488 0.05,-0.802 l 3.419,-2.663 z m 3.219,4.978 c -0.221,-0.396 -0.558,-0.746 -0.954,-0.992 l -1.385,0.58 0.098,0.174 c 0.74,-0.246 1.629,-0.187 1.982,0.444 0.328,0.585 0.104,1.311 -0.6,1.707 -1.656,0.933 -2.429,-1.592 -4.53,-0.408 -1.149,0.646 -1.353,1.681 -0.834,2.608 0.176,0.312 0.431,0.578 0.655,0.852 l 1.208,-0.521 -0.098,-0.174 c -0.67,0.267 -1.232,0.123 -1.539,-0.424 -0.324,-0.578 -0.021,-1.187 0.629,-1.554 1.656,-0.931 2.515,1.664 4.563,0.511 1.157,-0.652 1.309,-1.907 0.805,-2.803 m 2.011,4.335 c -0.136,-0.302 -0.267,-0.616 -0.416,-0.97 l -0.241,0.11 c 0.19,0.421 0.23,0.661 -0.123,0.821 l -3.61,1.637 -0.274,-0.603 c -0.219,-0.485 -0.187,-0.614 0.385,-1.036 l -0.093,-0.207 -1.179,0.669 0.072,0.159 c 0.177,-0.08 0.306,0.081 0.382,0.248 l 1.144,2.533 c 0.082,0.182 0.126,0.278 -0.033,0.522 l 0.072,0.159 1.192,-0.637 -0.097,-0.213 c -0.617,0.222 -0.757,0.208 -0.905,-0.117 l -0.358,-0.794 3.61,-1.637 c 0.354,-0.161 0.507,0.029 0.697,0.45 l 0.242,-0.11 c -0.164,-0.337 -0.323,-0.666 -0.467,-0.984 m 2.067,4.88 c -0.355,-1.057 -1.043,-1.534 -2.165,-1.155 l -2.663,0.896 c -0.349,0.118 -0.465,-0.229 -0.54,-0.453 l -0.252,0.085 c 0.113,0.303 0.233,0.63 0.336,0.936 0.097,0.289 0.19,0.598 0.274,0.882 l 0.252,-0.085 c -0.083,-0.248 -0.18,-0.537 0.15,-0.648 l 2.633,-0.887 c 0.89,-0.3 1.406,0.05 1.62,0.687 0.388,1.157 -0.667,1.511 -1.635,1.838 l -1.143,0.384 c -0.968,0.326 -1.073,0.27 -1.259,-0.283 l -0.252,0.084 c 0.102,0.27 0.206,0.547 0.297,0.82 0.078,0.232 0.143,0.457 0.21,0.692 l 0.252,-0.084 c -0.094,-0.281 -0.117,-0.513 0.511,-0.725 l 1.966,-0.661 c 1.114,-0.375 1.814,-1.116 1.408,-2.323 m 1.417,5.642 c -0.08,-0.375 -0.19,-0.798 -0.261,-1.129 -0.081,-0.384 -0.149,-0.762 -0.221,-1.147 l -0.26,0.055 c 0.085,0.4 0.074,0.643 -0.306,0.723 l -3.498,0.742 c -0.38,0.081 -0.488,-0.137 -0.573,-0.538 l -0.259,0.055 c 0.076,0.314 0.159,0.661 0.235,1.019 0.092,0.435 0.165,0.874 0.255,1.301 0.362,1.714 1.766,2.182 2.915,1.939 1.889,-0.401 2.235,-1.775 1.973,-3.02 m 0.771,4.751 c -0.04,-0.329 -0.07,-0.667 -0.1,-0.997 l -0.263,0.031 c 0.049,0.407 0.016,0.648 -0.369,0.694 l -3.55,0.426 c -0.385,0.047 -0.474,-0.18 -0.523,-0.586 l -0.264,0.031 c 0.049,0.328 0.1,0.664 0.14,0.993 0.041,0.346 0.075,0.711 0.103,1.032 l 0.264,-0.031 c -0.049,-0.407 -0.016,-0.648 0.369,-0.694 l 3.55,-0.427 c 0.386,-0.046 0.474,0.18 0.522,0.587 l 0.265,-0.031 c -0.049,-0.319 -0.102,-0.682 -0.144,-1.028 m 0.316,3.727 c -0.025,-0.556 -0.041,-1.123 -0.057,-1.681 l -0.265,0.012 c 0.019,0.41 -0.031,0.648 -0.42,0.665 l -3.571,0.165 c -0.388,0.019 -0.46,-0.214 -0.479,-0.622 l -0.265,0.011 c 0.028,0.392 0.057,0.782 0.075,1.175 0.032,0.714 0.056,1.437 0.078,2.142 l 1.084,0.003 -0.008,-0.183 c -0.699,-0.072 -0.767,-0.218 -0.808,-1.114 l -0.031,-0.645 1.93,-0.089 0.033,0.723 c 0.02,0.435 0.019,0.627 -0.686,0.66 l 0.01,0.226 c 0.266,-0.021 0.541,-0.042 0.816,-0.056 0.276,-0.012 0.562,-0.016 0.848,-0.021 l -0.01,-0.226 c -0.562,0.025 -0.629,-0.085 -0.652,-0.598 l -0.033,-0.722 1.49,-0.07 c 0.438,-0.02 0.611,0.181 0.645,0.904 0.041,0.879 -0.089,0.946 -0.747,1.317 l 0.011,0.218 1.119,-0.322 C 52.439,-57.88 52.4,-58.498 52.37,-59.125" style="fill:#002843;fill-opacity:1;fill-rule:nonzero;stroke:none" id="path472"></path></g><g id="g474" transform="matrix(1.7707081,0,0,1.7707081,268.9465,457.9562)"><path d="M 0,0 C 0.16,0.122 0.312,0.256 0.475,0.375 V 6.122 C -0.863,5.28 -2.131,4.338 -3.321,3.307 -2.496,1.907 -1.354,0.816 0,0" style="fill:#002843;fill-opacity:1;fill-rule:nonzero;stroke:none" id="path476"></path></g><g id="g478" transform="matrix(1.7707081,0,0,1.7707081,263.39569,414.58678)"><path d="M 0,0 C 1.152,-0.597 2.361,-1.107 3.61,-1.553 V 9.012 C 3.169,9.153 2.736,9.312 2.31,9.483 1.173,6.455 0.403,3.264 0,0" style="fill:#002843;fill-opacity:1;fill-rule:nonzero;stroke:none" id="path480"></path></g><g id="g482" transform="matrix(1.7707081,0,0,1.7707081,329.02026,394.70421)"><path d="M 0,0 C -0.413,-2.998 -1.104,-5.995 -2.073,-8.945 H 1.973 V -8.962 C 3.754,-7.586 5.383,-6.024 6.827,-4.3 8.455,0.335 9.361,4.747 9.534,8.913 7.009,5.504 3.758,2.4 0,0" style="fill:#002843;fill-opacity:1;fill-rule:nonzero;stroke:none" id="path484"></path></g><g id="g486" transform="matrix(1.7707081,0,0,1.7707081,265.72576,432.1515)"><path d="M 0,0 C -2.054,0.981 -3.892,2.373 -5.421,4.295 -6.86,1.639 -7.966,-1.264 -8.719,-4.308 -6.843,-6.313 -4.7,-7.996 -2.329,-9.352 -1.899,-6.135 -1.126,-2.99 0,0" style="fill:#002843;fill-opacity:1;fill-rule:nonzero;stroke:none" id="path488"></path></g><g id="g490" transform="matrix(1.7707081,0,0,1.7707081,269.78795,432.50245)"><path d="M 0,0 V 2.457 C -0.331,1.764 -0.63,1.056 -0.919,0.342 -0.617,0.22 -0.311,0.106 0,0" style="fill:#002843;fill-opacity:1;fill-rule:nonzero;stroke:none" id="path492"></path></g><g id="g494" transform="matrix(1.7707081,0,0,1.7707081,257.14633,441.53891)"><path d="m 0,0 c 1.45,-1.947 3.222,-3.345 5.229,-4.322 0.562,1.382 1.2,2.724 1.91,4.024 V 7.853 C 7.032,7.905 6.92,7.952 6.814,8.006 4.118,5.839 1.828,3.111 0,0" style="fill:#002843;fill-opacity:1;fill-rule:nonzero;stroke:none" id="path496"></path></g><g id="g498" transform="matrix(1.7707081,0,0,1.7707081,345.95053,413.82555)"><path d="M 0,0 C -0.046,3.878 -0.751,7.531 -2.105,10.945 -2.63,9.963 -3.207,8.996 -3.885,8.068 -5.463,5.904 -7.388,3.996 -9.588,2.365 -9.022,-1.467 -8.956,-5.427 -9.388,-9.406 -5.604,-6.852 -2.393,-3.563 0,0" style="fill:#002843;fill-opacity:1;fill-rule:nonzero;stroke:none" id="path500"></path></g><g id="g502" transform="matrix(1.7707081,0,0,1.7707081,306.92908,470.63111)"><path d="m 0,0 h 11.659 v 9.47 h -29.843 v -73.209 h 29.843 v 9.12 H 0 Z" style="fill:#002843;fill-opacity:1;fill-rule:nonzero;stroke:none" id="path504"></path></g><g id="g506" transform="matrix(1.7707081,0,0,1.7707081,313.01854,464.65249)"><path d="m 0,0 c 3.602,-1.551 6.915,-3.814 9.694,-6.368 1.11,2.364 1.575,4.752 1.378,6.955 C 11.051,0.604 11.031,0.62 11.01,0.636 V 0.582 H 0.489 C 0.328,0.386 0.168,0.19 0,0" style="fill:#002843;fill-opacity:1;fill-rule:nonzero;stroke:none" id="path508"></path></g><g id="g510" transform="matrix(1.7707081,0,0,1.7707081,311.87343,378.86452)"><path d="M 0,0 H 6.463 C 7.374,2.709 8.049,5.458 8.48,8.212 5.854,6.684 3.006,5.502 0,4.795 Z" style="fill:#002843;fill-opacity:1;fill-rule:nonzero;stroke:none" id="path512"></path></g><g id="g514" transform="matrix(1.7707081,0,0,1.7707081,311.87343,389.33312)"><path d="M 0,0 C 3.094,0.756 6.013,2.025 8.679,3.666 9.187,7.659 9.183,11.641 8.664,15.493 6.095,13.752 3.181,12.375 0,11.409 Z" style="fill:#002843;fill-opacity:1;fill-rule:nonzero;stroke:none" id="path516"></path></g><g id="g518" transform="matrix(1.7707081,0,0,1.7707081,347.7848,416.72473)"><path d="M 0,0 C 1.481,2.517 2.548,5.13 3.12,7.683 2.559,11.51 1.297,15.107 -0.527,18.346 -0.679,15.706 -1.348,13.086 -2.491,10.591 -1.053,7.275 -0.219,3.741 0,0" style="fill:#002843;fill-opacity:1;fill-rule:nonzero;stroke:none" id="path520"></path></g><g id="g522" transform="matrix(1.7707081,0,0,1.7707081,342.2733,437.88346)"><path d="m 0,0 c 0.003,-0.006 0.005,-0.011 0.008,-0.017 1.072,2.646 1.59,5.415 1.506,8.177 -1.623,2.478 -3.59,4.708 -5.834,6.626 0.013,-2.201 -0.551,-4.525 -1.676,-6.81 C -3.371,5.411 -1.29,2.614 0,0" style="fill:#002843;fill-opacity:1;fill-rule:nonzero;stroke:none" id="path524"></path></g><g id="g526" transform="matrix(1.7707081,0,0,1.7707081,311.87343,435.38446)"><path d="M 0,0 C 1.553,0.757 3.01,1.674 4.342,2.728 3.107,4.891 1.624,6.979 0,8.869 Z" style="fill:#002843;fill-opacity:1;fill-rule:nonzero;stroke:none" id="path528"></path></g><g id="g530" transform="matrix(1.7707081,0,0,1.7707081,330.732,450.2237)"><path d="m 0,0 c -1.262,-2.223 -2.935,-4.221 -4.915,-5.916 0.835,-1.561 1.552,-3.155 2.103,-4.746 0.708,-2.043 1.251,-4.154 1.633,-6.31 1.921,1.488 3.608,3.202 5.011,5.125 0.824,1.129 1.526,2.308 2.114,3.518 -0.133,0.294 -0.26,0.59 -0.403,0.88 C 4.34,-5.009 2.416,-2.408 0,0" style="fill:#002843;fill-opacity:1;fill-rule:nonzero;stroke:none" id="path532"></path></g><g id="g534" transform="matrix(1.7707081,0,0,1.7707081,311.87343,411.55002)"><path d="M 0,0 C 3.13,0.984 5.99,2.375 8.487,4.136 8.113,6.425 7.561,8.664 6.813,10.823 6.305,12.287 5.643,13.766 4.869,15.223 3.38,14.063 1.743,13.067 0,12.261 Z" style="fill:#002843;fill-opacity:1;fill-rule:nonzero;stroke:none" id="path536"></path></g><g id="g538" transform="matrix(1.7707081,0,0,1.7707081,311.87343,454.0401)"><path d="m 0,0 c 1.958,-2.129 3.742,-4.55 5.202,-7.094 1.879,1.642 3.466,3.568 4.643,5.712 C 7.051,1.234 3.677,3.555 0,5.097 Z" style="fill:#002843;fill-opacity:1;fill-rule:nonzero;stroke:none" id="path540"></path></g><g id="g542" transform="matrix(1.7707081,0,0,1.7707081,267.42511,456.75637)"><path d="M 0,0 C -1.319,0.847 -2.427,1.935 -3.266,3.266 -5.29,1.387 -7.061,-0.758 -8.526,-3.114 -7.977,-4.84 -7.291,-6.335 -6.479,-7.617 -4.704,-4.693 -2.533,-2.103 0,0" style="fill:#002843;fill-opacity:1;fill-rule:nonzero;stroke:none" id="path544"></path></g><g id="g546" transform="matrix(1.7707081,0,0,1.7707081,249.7538,422.26882)"><path d="m 0,0 c -0.662,-3.133 -0.943,-6.393 -0.813,-9.67 1.974,-1.895 4.484,-3.662 7.412,-5.167 C 6.215,-11.532 6.181,-8.204 6.53,-4.935 4.124,-3.606 1.931,-1.965 0,0" style="fill:#002843;fill-opacity:1;fill-rule:nonzero;stroke:none" id="path548"></path></g><g id="g550" transform="matrix(1.7707081,0,0,1.7707081,216.05847,453.69128)"><path d="M 0,0 C 0.252,-0.109 0.52,-0.128 0.794,-0.055 1.07,0.017 1.26,0.166 1.355,0.394 1.452,0.62 1.434,0.858 1.3,1.104 1.167,1.352 0.974,1.528 0.717,1.637 0.458,1.749 0.19,1.77 -0.081,1.698 -0.352,1.628 -0.536,1.48 -0.634,1.253 -0.727,1.037 -0.708,0.802 -0.577,0.547 -0.449,0.291 -0.257,0.109 0,0" style="fill:#002843;fill-opacity:1;fill-rule:nonzero;stroke:none" id="path552"></path></g><g id="g554" transform="matrix(1.7707081,0,0,1.7707081,363.6121,481.57267)"><path d="M 0,0 C 0.261,0.014 0.499,0.113 0.705,0.297 0.917,0.483 1.053,0.705 1.106,0.965 1.156,1.223 1.103,1.445 0.939,1.632 0.79,1.803 0.576,1.887 0.306,1.88 0.034,1.875 -0.204,1.78 -0.413,1.596 -0.62,1.414 -0.754,1.191 -0.804,0.928 -0.858,0.666 -0.803,0.44 -0.639,0.255 -0.478,0.07 -0.264,-0.015 0,0" style="fill:#002843;fill-opacity:1;fill-rule:nonzero;stroke:none" id="path556"></path></g><g id="g558" transform="matrix(1.7707081,0,0,1.7707081,386.02785,407.10766)"><path d="M 0,0 C -1.229,0.261 -2.301,-0.02 -2.543,-1.162 -2.595,-1.41 -2.665,-1.84 -2.711,-2.107 L 0.886,-2.87 C 1.466,-2.992 1.573,-2.73 1.66,-2.32 1.834,-1.502 1.749,-0.371 0,0" style="fill:#002843;fill-opacity:1;fill-rule:nonzero;stroke:none" id="path560"></path></g></g></g></g></g></g></g></svg>
